# xmcd CD database file
#
# Track frame offsets:
#	150
#	31064
#	68971
#	78351
#	97752
#	130543
#	163036
#	173113
#	202653
#	219986
#	240178
#
# Disc length: 3452 seconds
#
# Revision: 0
# Processed by: cddbd v1.5.2PL0 Copyright (c) Steve Scherf et al.
# Submitted via: CDex 1.73
#
DISCID=770d7a0b
DTITLE=David Prez - Awakening
DYEAR=2012
DGENRE=Jazz
TTITLE0=Albatros
TTITLE1=Four Symbols
TTITLE2=Intro to Awakening
TTITLE3=Awakening
TTITLE4=Blues for Mike
TTITLE5=Repeat
TTITLE6=Intro to Gabriel
TTITLE7=Gabriel
TTITLE8=Sincerity
TTITLE9=Nerdville
TTITLE10=Clouds and a Robot
EXTD=YEAR: 2012
EXTT0=
EXTT1=
EXTT2=
EXTT3=
EXTT4=
EXTT5=
EXTT6=
EXTT7=
EXTT8=
EXTT9=
EXTT10=
PLAYORDER=
